<?xml version="1.0" encoding="UTF-8"?>
<svg width="23px" height="16px" viewBox="0 0 23 16" version="1.1" xmlns="http://www.w3.org/2000/svg" xmlns:xlink="http://www.w3.org/1999/xlink">
    <title>Group 13 Copy 2</title>
    <g id="Page-1" stroke="none" stroke-width="1" fill="none" fill-rule="evenodd">
        <g id="03_3_Column-Settings" transform="translate(-1403.000000, -20.000000)">
            <g id="Group-31" transform="translate(1120.000000, -0.000000)">
                <g id="Group-13-Copy-2" transform="translate(283.000000, 20.000000)">
                    <g id="icon-/-arrow-copy-2" transform="translate(8.000000, 8.000000) rotate(-90.000000) translate(-8.000000, -8.000000) ">
                        <rect id="Rectangle" x="0" y="0" width="16" height="16"></rect>
                        <path d="M4.51040764,2 C4.89010341,2 5.00074522,2.28215388 5.05040764,2.64822944 L5.06040764,2.75 L5.26040764,9 L11.5104076,9.2 C11.8901034,9.2 12.2038986,9.28215388 12.253561,9.64822944 L12.2604076,9.75 C12.2604076,10.1296958 11.9782538,10.2403376 11.6121782,10.29 L11.5104076,10.3 L4.51040764,10.5 C4.13071187,10.5 3.81691668,10.2178461 3.76725426,9.85177056 L3.76040764,9.75 L3.96040764,2.75 C3.96040764,2.33578644 4.09619408,2 4.51040764,2 Z" id="Path" fill="#2A2C2E" transform="translate(8.010408, 6.250000) rotate(-45.000000) translate(-8.010408, -6.250000) "></path>
                    </g>
                    <g id="Group" transform="translate(6.500000, 0.000000)">
                        <g id="icon-/-arrow-copy-2" transform="translate(8.000000, 8.000000) scale(-1, 1) rotate(-90.000000) translate(-8.000000, -8.000000) ">
                            <rect id="Rectangle" x="0" y="0" width="16" height="16"></rect>
                            <path d="M4.51040764,2 C4.89010341,2 5.00074522,2.28215388 5.05040764,2.64822944 L5.06040764,2.75 L5.26040764,9 L11.5104076,9.2 C11.8901034,9.2 12.2038986,9.28215388 12.253561,9.64822944 L12.2604076,9.75 C12.2604076,10.1296958 11.9782538,10.2403376 11.6121782,10.29 L11.5104076,10.3 L4.51040764,10.5 C4.13071187,10.5 3.81691668,10.2178461 3.76725426,9.85177056 L3.76040764,9.75 L3.96040764,2.75 C3.96040764,2.33578644 4.09619408,2 4.51040764,2 Z" id="Path" fill="#2A2C2E" transform="translate(8.010408, 6.250000) rotate(-45.000000) translate(-8.010408, -6.250000) "></path>
                        </g>
                    </g>
                </g>
            </g>
        </g>
    </g>
</svg>